<!DOCTYPE svg PUBLIC "-//W3C//DTD SVG 20010904//EN" "http://www.w3.org/TR/2001/REC-SVG-20010904/DTD/svg10.dtd">
<svg version="1.0" xmlns="http://www.w3.org/2000/svg" width="300px" viewBox="0 0 6910 4780" preserveAspectRatio="xMidYMid meet">
<defs>
<linearGradient id="linear" x1="0%" y1="0%" x2="100%" y2="0%">
  <stop offset="0%"   stop-color="#F3E8CD"/>
  <stop offset="100%" stop-color="#B59B69"/>
</linearGradient>
</defs>
<g id="layer102" fill="url(#linear)" stroke="none">
 <path d="M3520 4000 c-343 -35 -658 -195 -886 -450 -75 -84 -144 -191 -204 -315 -54 -110 -1150 -2688 -1157 -2720 -4 -18 7 -24 79 -48 234 -76 437 -92 681 -51 417 70 791 353 978 741 21 45 253 587 515 1205 604 1423 644 1519 644 1533 0 15 -173 70 -280 89 -113 20 -265 26 -370 16z"/>
 <path d="M5805 3999 c-223 -23 -430 -98 -624 -227 -162 -107 -357 -327 -446 -502 -13 -26 -181 -418 -373 -871 -192 -453 -450 -1060 -572 -1349 -123 -289 -225 -532 -227 -541 -5 -18 142 -69 282 -96 133 -25 368 -23 502 6 403 85 721 316 917 666 40 72 926 2135 1203 2802 16 39 -382 128 -546 122 -20 -1 -72 -5 -116 -10z"/>
 <path d="M650 3953 c0 -13 644 -1393 650 -1393 3 0 145 312 314 693 170 380 311 695 313 700 2 4 -284 7 -636 7 -353 0 -641 -3 -641 -7z"/>
 </g>

</svg>